{"title":"Broken 2012 480p BRRip XviD titler","uid":9397456,"size":892057927,"categoryP":"video","categoryS":"movies","magnet":"?xt=urn:btih:9387293a0a21bbecd81207e396d4b97876a82d19&amp;dn=Broken+2012+480p+BRRip+XviD+titler&amp;tr=udp%3A%2F%2Ftracker.openbittorrent.com%3A80&amp;tr=udp%3A%2F%2Fopen.demonii.com%3A1337&amp;tr=udp%3A%2F%2Ftracker.coppersurfer.tk%3A6969&amp;tr=udp%3A%2F%2Fexodus.desync.com%3A6969","seeders":1,"leechers":0,"uploader":"movieZ.freak","files":5,"time":1388006098,"description":"SOURCE: Broken 2012 LIMITED 720p BluRay x264 - GECKOS\n\n\n  &lt;a href=&quot;\nhttp://www.imdb.com/title/tt1441940/&quot; rel=&quot;nofollow&quot; target=&quot;_NEW&quot;&gt;\nhttp://www.imdb.com/title/tt1441940/&lt;/a&gt;\n\n\n &lt;a href=&quot;\nhttp://www.rottentomatoes.com/m/broken_2012/&quot; rel=&quot;nofollow&quot; target=&quot;_NEW&quot;&gt;\nhttp://www.rottentomatoes.com/m/broken_2012/&lt;/a&gt;\n\n\n &lt;a href=&quot;\nhttp://en.wikipedia.org/wiki/Broken_%282012_film%29&quot; rel=&quot;nofollow&quot; target=&quot;_NEW&quot;&gt;\nhttp://en.wikipedia.org/wiki/Broken_%282012_film%29&lt;/a&gt;\n\n\n\n\n- SAMPLE: Yes\n\n- SUBTITLE: English\n\n- LANGUAGE / AUDIO: English\n\n\n\n\nSCREENSHOTS:\n-------------------  &lt;a href=&quot;\nhttp://someimage.com/U2Xh&quot; rel=&quot;nofollow&quot; target=&quot;_NEW&quot;&gt;\nhttp://someimage.com/U2Xh&lt;/a&gt;\n\n\n\nNOTE:\n------\n\nOne of the worst bluray (MKV) sources I have ever seen, but one of the best movies I have seen this year. :)\n\n\nHappy 'ALL' upcoming holidays wherever you are, and all the best wishes. ;)\n\n\n\n\nDIRECTOR: Rufus Norris\n\n\n\nCAST: Eloise Laurence, Tim Roth, Cillian Murphy, Robert Emms, Rory Kinnear, Zana Marjanovic,...\n\n\nPLOT:\n-----------\nThe summer holidays have just begun and 11 year-old Skunk's afternoons are full of day dreams and curious wanderings around her neighborhood - with the exception that she must regularly give herself injections to combat her type 1 diabetes. When, one day, Skunk (Eloise Laurence) discovers her bitter and angry older neighbor, Mr. Oswald (Rory Kinnear), savagely beating Rick, a psychologically-troubled boy from the neighborhood whom Mr. Oswald's daughter has callously and fictitiously accused of rape, Skunk's innocence begins to vanish. Trying to find solace with her loving nanny (Zana Marjanovic) and father (Tim Roth), with whom she is very close, Skunk is unwittingly drawn into her neighbors' unfolding melodrama involving violence, sex, and life-shattering illness. Her home, her neighborhood and her school all become treacherous environments where the happy certainties of childhood give way to a fear-filled doubt, and the promise of a complex, broken future. Overwhelmed by her experiences, Skunk herself is drawn into\nan ethereal chaos from which she may only return through the intense love of those closest to her.\n\n\n*****************************\n\n- Duration: 1h 31mn\n\n- Bit rate: 1148 Kbps\n\n- Res: 854 x 458\n\n- AR: 1.85:1\n\n- FPS: 23.976\n\n- Audio: AC-3, 128Kbps, 2 channels\n\n*****************************\n\n\nGeneral\n--------------\nFormat : AVI\nFormat/Info : Audio Video Interleave\nFile size : 837 MiB\nDuration : 1h 31mn\nOverall bit rate : 1285 Kbps\nWriting library : VirtualDub build 35491\n\n\nVideo\n------------\nFormat : MPEG-4 Visual\nFormat profile : Advanced Simple@L5\nFormat settings, BVOP : 2\nFormat settings, QPel : No\nFormat settings, GMC : No warppoints\nFormat settings, Matrix : Default (H.263)\nCodec ID : XVID\nCodec ID/Hint : XviD\nDuration : 1h 31mn\nBit rate : 1148 Kbps\nWidth : 854 pixels\nHeight : 458 pixels\nDisplay aspect ratio : 1.85:1\nFrame rate : 23.976 fps\nColor space : YUV\nChroma subsampling : 4:2:0\nBit depth : 8 bits\nScan type : Progressive\nCompression mode : Lossy\nBits/(Pixel*Frame) : 0.122\nStream size : 747 MiB (89%)\nWriting library : XviD 65\n\n\nAudio\n--------------\nFormat : AC-3\nFormat/Info : Audio Coding 3\nMode extension : CM (complete main)\nFormat settings, Endianness : Big\nCodec ID : 2000\nDuration : 1h 31mn\nBit rate mode : Constant\nBit rate : 128 Kbps\nChannel(s) : 2 channels\nChannel positions : Front: L R\nSampling rate : 48.0 KHz\nBit depth : 16 bits\nCompression mode : Lossy\nStream size : 83.3 MiB (10%)\nAlignment : Aligned on interleaves\nInterleave, duration : 42 ms (1.00 video frame)\nInterleave, preload duration : 512 ms","torrent":{"xt":"urn:btih:9387293a0a21bbecd81207e396d4b97876a82d19","amp;dn":"Broken+2012+480p+BRRip+XviD+titler","amp;tr":["udp%3A%2F%2Ftracker.openbittorrent.com%3A80","udp%3A%2F%2Fopen.demonii.com%3A1337","udp%3A%2F%2Ftracker.coppersurfer.tk%3A6969","udp%3A%2F%2Fexodus.desync.com%3A6969"],"infoHash":"9387293a0a21bbecd81207e396d4b97876a82d19","infoHashBuffer":{"type":"Buffer","data":[147,135,41,58,10,33,187,236,216,18,7,227,150,212,185,120,118,168,45,25]},"announce":[],"urlList":[]}}